<svg xmlns="http://www.w3.org/2000/svg" xmlns:xlink="http://www.w3.org/1999/xlink" contentStyleType="text/css" height="976px" preserveAspectRatio="none" style="width:2174px;height:976px;background:#FFFFFF;" version="1.1" viewBox="0 0 2174 976" width="2174px" zoomAndPan="magnify"><defs/><g><!--class Concesionario--><g id="elem_Concesionario"><rect codeLine="1" fill="#F1F1F1" height="122.4844" id="Concesionario" rx="2.5" ry="2.5" style="stroke:#181818;stroke-width:0.5;" width="245.4541" x="1411" y="7"/><ellipse cx="1484.729" cy="23" fill="#ADD1B2" rx="11" ry="11" style="stroke:#181818;stroke-width:1.0;"/><path d="M1487.4946,18.875 Q1487.6509,18.6563 1487.8384,18.5469 Q1488.0259,18.4375 1488.2446,18.4375 Q1488.6196,18.4375 1488.854,18.7031 Q1489.0884,18.9531 1489.0884,19.5625 L1489.0884,21.0156 Q1489.0884,21.625 1488.854,21.8906 Q1488.6196,22.1563 1488.2446,22.1563 Q1487.9009,22.1563 1487.6978,21.9531 Q1487.4946,21.7656 1487.3853,21.25 Q1487.3384,20.8906 1487.1509,20.7031 Q1486.8228,20.3281 1486.2134,20.1094 Q1485.604,19.8906 1484.979,19.8906 Q1484.2134,19.8906 1483.5728,20.2188 Q1482.9478,20.5469 1482.4478,21.2969 Q1481.9634,22.0469 1481.9634,23.0781 L1481.9634,24.1719 Q1481.9634,25.4063 1482.854,26.2344 Q1483.7446,27.0469 1485.3384,27.0469 Q1486.2759,27.0469 1486.9321,26.7969 Q1487.3228,26.6406 1487.7446,26.2031 Q1488.0103,25.9375 1488.1509,25.8594 Q1488.3071,25.7813 1488.5103,25.7813 Q1488.8384,25.7813 1489.0884,26.0469 Q1489.354,26.2969 1489.354,26.6406 Q1489.354,26.9844 1489.0103,27.3906 Q1488.5103,27.9688 1487.7134,28.2969 Q1486.6353,28.75 1485.3384,28.75 Q1483.8228,28.75 1482.6196,28.125 Q1481.6353,27.625 1480.9478,26.5625 Q1480.2603,25.4844 1480.2603,24.2031 L1480.2603,23.0469 Q1480.2603,21.7188 1480.8696,20.5781 Q1481.4946,19.4219 1482.5884,18.8125 Q1483.6821,18.1875 1484.9165,18.1875 Q1485.6509,18.1875 1486.2915,18.3594 Q1486.9478,18.5156 1487.4946,18.875 Z " fill="#000000"/><text fill="#000000" font-family="sans-serif" font-size="14" lengthAdjust="spacing" textLength="89.4961" x="1505.229" y="28.7969">Concesionario</text><line style="stroke:#181818;stroke-width:0.5;" x1="1412" x2="1655.4541" y1="39" y2="39"/><rect fill="none" height="6" style="stroke:#C82930;stroke-width:1.0;" width="6" x="1419" y="50.8105"/><text fill="#000000" font-family="sans-serif" font-size="14" lengthAdjust="spacing" textLength="219.4541" x="1431" y="58.1074">concesionario: ArrayList&lt;Vehiculo&gt;</text><line style="stroke:#181818;stroke-width:0.5;" x1="1412" x2="1655.4541" y1="65.6211" y2="65.6211"/><ellipse cx="1422" cy="80.4316" fill="#84BE84" rx="3" ry="3" style="stroke:#038048;stroke-width:1.0;"/><text fill="#000000" font-family="sans-serif" font-size="14" lengthAdjust="spacing" textLength="166.5303" x="1431" y="84.7285">buscarVehiculo(): Vehiculo</text><ellipse cx="1422" cy="99.0527" fill="#84BE84" rx="3" ry="3" style="stroke:#038048;stroke-width:1.0;"/><text fill="#000000" font-family="sans-serif" font-size="14" lengthAdjust="spacing" textLength="143.9375" x="1431" y="103.3496">listarVehiculos(): String</text><ellipse cx="1422" cy="117.6738" fill="#84BE84" rx="3" ry="3" style="stroke:#038048;stroke-width:1.0;"/><text fill="#000000" font-family="sans-serif" font-size="14" lengthAdjust="spacing" textLength="142.4063" x="1431" y="121.9707">asignarVehiculo(): void</text></g><!--class Vehiculo--><g id="elem_Vehiculo"><rect codeLine="9" fill="#F1F1F1" height="234.2109" id="Vehiculo" rx="2.5" ry="2.5" style="stroke:#181818;stroke-width:0.5;" width="171.4961" x="1448" y="189"/><ellipse cx="1502.6465" cy="205" fill="#A9DCDF" rx="11" ry="11" style="stroke:#181818;stroke-width:1.0;"/><path d="M1504.834,206.7656 L1500.6934,206.7656 L1500.2715,207.7969 L1500.6934,207.7969 Q1501.3027,207.7969 1501.5684,208.0313 Q1501.834,208.2656 1501.834,208.6563 Q1501.834,209.0313 1501.5684,209.2656 Q1501.3027,209.5 1500.6934,209.5 L1498.3965,209.5 Q1497.7871,209.5 1497.5371,209.2656 Q1497.2715,209.0313 1497.2715,208.6406 Q1497.2715,208.2656 1497.5527,208.0313 Q1497.8184,207.7813 1498.4434,207.7969 L1501.1152,201.1406 L1500.0059,201.1406 Q1499.3965,201.1406 1499.1309,200.9063 Q1498.8652,200.6719 1498.8652,200.2813 Q1498.8652,199.9063 1499.1309,199.6719 Q1499.3965,199.4375 1500.0059,199.4375 L1503.6777,199.4375 L1507.0684,207.7969 Q1507.6621,207.7969 1507.8496,207.9375 Q1508.2402,208.2031 1508.2402,208.6563 Q1508.2402,209.0313 1507.9746,209.2656 Q1507.7246,209.5 1507.1152,209.5 L1504.8184,209.5 Q1504.209,209.5 1503.9434,209.2656 Q1503.6777,209.0313 1503.6777,208.6406 Q1503.6777,208.2656 1503.9434,208.0313 Q1504.209,207.7969 1504.8184,207.7969 L1505.2402,207.7969 L1504.834,206.7656 Z M1504.1152,205.0625 L1502.7559,201.6875 L1501.3809,205.0625 L1504.1152,205.0625 Z " fill="#000000"/><text fill="#000000" font-family="sans-serif" font-size="14" font-style="italic" lengthAdjust="spacing" textLength="53.7031" x="1523.1465" y="210.7969">Vehiculo</text><line style="stroke:#181818;stroke-width:0.5;" x1="1449" x2="1618.4961" y1="221" y2="221"/><polygon fill="none" points="1459,230.8105,1463,234.8105,1459,238.8105,1455,234.8105" style="stroke:#B38D22;stroke-width:1.0;"/><text fill="#000000" font-family="sans-serif" font-size="14" lengthAdjust="spacing" textLength="101.1445" x="1468" y="240.1074">matricula: String</text><polygon fill="none" points="1459,249.4316,1463,253.4316,1459,257.4316,1455,253.4316" style="stroke:#B38D22;stroke-width:1.0;"/><text fill="#000000" font-family="sans-serif" font-size="14" lengthAdjust="spacing" textLength="83.248" x="1468" y="258.7285">marca: String</text><polygon fill="none" points="1459,268.0527,1463,272.0527,1459,276.0527,1455,272.0527" style="stroke:#B38D22;stroke-width:1.0;"/><text fill="#000000" font-family="sans-serif" font-size="14" lengthAdjust="spacing" textLength="90.2686" x="1468" y="277.3496">modelo: String</text><polygon fill="none" points="1459,286.6738,1463,290.6738,1459,294.6738,1455,290.6738" style="stroke:#B38D22;stroke-width:1.0;"/><text fill="#000000" font-family="sans-serif" font-size="14" lengthAdjust="spacing" textLength="118.2891" x="1468" y="295.9707">a&#241;oFabricacion: int</text><polygon fill="none" points="1459,305.2949,1463,309.2949,1459,313.2949,1455,309.2949" style="stroke:#B38D22;stroke-width:1.0;"/><text fill="#000000" font-family="sans-serif" font-size="14" lengthAdjust="spacing" textLength="90.2549" x="1468" y="314.5918">kilometraje: int</text><polygon fill="none" points="1459,323.916,1463,327.916,1459,331.916,1455,327.916" style="stroke:#B38D22;stroke-width:1.0;"/><text fill="#000000" font-family="sans-serif" font-size="14" lengthAdjust="spacing" textLength="87.9512" x="1468" y="333.2129">precio: double</text><polygon fill="none" points="1459,342.5371,1463,346.5371,1459,350.5371,1455,346.5371" style="stroke:#B38D22;stroke-width:1.0;"/><text fill="#000000" font-family="sans-serif" font-size="14" lengthAdjust="spacing" textLength="93.3994" x="1468" y="351.834">estado: Estado</text><polygon fill="none" points="1459,361.1582,1463,365.1582,1459,369.1582,1455,365.1582" style="stroke:#B38D22;stroke-width:1.0;"/><text fill="#000000" font-family="sans-serif" font-size="14" lengthAdjust="spacing" textLength="124.5234" x="1468" y="370.4551">propietario: persona</text><line style="stroke:#181818;stroke-width:0.5;" x1="1449" x2="1618.4961" y1="377.9688" y2="377.9688"/><ellipse cx="1459" cy="392.7793" fill="#84BE84" rx="3" ry="3" style="stroke:#038048;stroke-width:1.0;"/><text fill="#000000" font-family="sans-serif" font-size="14" lengthAdjust="spacing" textLength="101.9238" x="1468" y="397.0762">toString(): String</text><ellipse cx="1459" cy="411.4004" fill="#84BE84" rx="3" ry="3" style="stroke:#038048;stroke-width:1.0;"/><text fill="#000000" font-family="sans-serif" font-size="14" lengthAdjust="spacing" textLength="145.4961" x="1468" y="415.6973">calcularRiesgo(): String</text></g><!--class Coche--><g id="elem_Coche"><rect codeLine="23" fill="#F1F1F1" height="122.4844" id="Coche" rx="2.5" ry="2.5" style="stroke:#181818;stroke-width:0.5;" width="239.2129" x="475" y="492.5"/><ellipse cx="570.1221" cy="508.5" fill="#ADD1B2" rx="11" ry="11" style="stroke:#181818;stroke-width:1.0;"/><path d="M572.8877,504.375 Q573.0439,504.1563 573.2314,504.0469 Q573.4189,503.9375 573.6377,503.9375 Q574.0127,503.9375 574.2471,504.2031 Q574.4814,504.4531 574.4814,505.0625 L574.4814,506.5156 Q574.4814,507.125 574.2471,507.3906 Q574.0127,507.6563 573.6377,507.6563 Q573.2939,507.6563 573.0908,507.4531 Q572.8877,507.2656 572.7783,506.75 Q572.7314,506.3906 572.5439,506.2031 Q572.2158,505.8281 571.6064,505.6094 Q570.9971,505.3906 570.3721,505.3906 Q569.6064,505.3906 568.9658,505.7188 Q568.3408,506.0469 567.8408,506.7969 Q567.3564,507.5469 567.3564,508.5781 L567.3564,509.6719 Q567.3564,510.9063 568.2471,511.7344 Q569.1377,512.5469 570.7314,512.5469 Q571.6689,512.5469 572.3252,512.2969 Q572.7158,512.1406 573.1377,511.7031 Q573.4033,511.4375 573.5439,511.3594 Q573.7002,511.2813 573.9033,511.2813 Q574.2314,511.2813 574.4814,511.5469 Q574.7471,511.7969 574.7471,512.1406 Q574.7471,512.4844 574.4033,512.8906 Q573.9033,513.4688 573.1064,513.7969 Q572.0283,514.25 570.7314,514.25 Q569.2158,514.25 568.0127,513.625 Q567.0283,513.125 566.3408,512.0625 Q565.6533,510.9844 565.6533,509.7031 L565.6533,508.5469 Q565.6533,507.2188 566.2627,506.0781 Q566.8877,504.9219 567.9814,504.3125 Q569.0752,503.6875 570.3096,503.6875 Q571.0439,503.6875 571.6846,503.8594 Q572.3408,504.0156 572.8877,504.375 Z " fill="#000000"/><text fill="#000000" font-family="sans-serif" font-size="14" lengthAdjust="spacing" textLength="40.4688" x="590.6221" y="514.2969">Coche</text><line style="stroke:#181818;stroke-width:0.5;" x1="476" x2="713.2129" y1="524.5" y2="524.5"/><polygon fill="none" points="486,534.3105,490,538.3105,486,542.3105,482,538.3105" style="stroke:#B38D22;stroke-width:1.0;"/><text fill="#000000" font-family="sans-serif" font-size="14" lengthAdjust="spacing" textLength="98.0479" x="495" y="543.6074">numPuertas: int</text><polygon fill="none" points="486,552.9316,490,556.9316,486,560.9316,482,556.9316" style="stroke:#B38D22;stroke-width:1.0;"/><text fill="#000000" font-family="sans-serif" font-size="14" lengthAdjust="spacing" textLength="213.2129" x="495" y="562.2285">tipoCombustible: TipoCombustible</text><polygon fill="none" points="486,571.5527,490,575.5527,486,579.5527,482,575.5527" style="stroke:#B38D22;stroke-width:1.0;"/><text fill="#000000" font-family="sans-serif" font-size="14" lengthAdjust="spacing" textLength="140.8613" x="495" y="580.8496">capacidadMaletero: int</text><polygon fill="none" points="486,590.1738,490,594.1738,486,598.1738,482,594.1738" style="stroke:#B38D22;stroke-width:1.0;"/><text fill="#000000" font-family="sans-serif" font-size="14" lengthAdjust="spacing" textLength="110.4824" x="495" y="599.4707">traccion: Traccion</text><line style="stroke:#181818;stroke-width:0.5;" x1="476" x2="713.2129" y1="606.9844" y2="606.9844"/></g><!--class Sedan--><g id="elem_Sedan"><rect codeLine="30" fill="#F1F1F1" height="103.8633" id="Sedan" rx="2.5" ry="2.5" style="stroke:#181818;stroke-width:0.5;" width="215.0957" x="7" y="693"/><ellipse cx="90.0566" cy="709" fill="#ADD1B2" rx="11" ry="11" style="stroke:#181818;stroke-width:1.0;"/><path d="M92.8223,704.875 Q92.9785,704.6563 93.166,704.5469 Q93.3535,704.4375 93.5723,704.4375 Q93.9473,704.4375 94.1816,704.7031 Q94.416,704.9531 94.416,705.5625 L94.416,707.0156 Q94.416,707.625 94.1816,707.8906 Q93.9473,708.1563 93.5723,708.1563 Q93.2285,708.1563 93.0254,707.9531 Q92.8223,707.7656 92.7129,707.25 Q92.666,706.8906 92.4785,706.7031 Q92.1504,706.3281 91.541,706.1094 Q90.9316,705.8906 90.3066,705.8906 Q89.541,705.8906 88.9004,706.2188 Q88.2754,706.5469 87.7754,707.2969 Q87.291,708.0469 87.291,709.0781 L87.291,710.1719 Q87.291,711.4063 88.1816,712.2344 Q89.0723,713.0469 90.666,713.0469 Q91.6035,713.0469 92.2598,712.7969 Q92.6504,712.6406 93.0723,712.2031 Q93.3379,711.9375 93.4785,711.8594 Q93.6348,711.7813 93.8379,711.7813 Q94.166,711.7813 94.416,712.0469 Q94.6816,712.2969 94.6816,712.6406 Q94.6816,712.9844 94.3379,713.3906 Q93.8379,713.9688 93.041,714.2969 Q91.9629,714.75 90.666,714.75 Q89.1504,714.75 87.9473,714.125 Q86.9629,713.625 86.2754,712.5625 Q85.5879,711.4844 85.5879,710.2031 L85.5879,709.0469 Q85.5879,707.7188 86.1973,706.5781 Q86.8223,705.4219 87.916,704.8125 Q89.0098,704.1875 90.2441,704.1875 Q90.9785,704.1875 91.6191,704.3594 Q92.2754,704.5156 92.8223,704.875 Z " fill="#000000"/><text fill="#000000" font-family="sans-serif" font-size="14" lengthAdjust="spacing" textLength="40.4824" x="110.5566" y="714.7969">Sedan</text><line style="stroke:#181818;stroke-width:0.5;" x1="8" x2="221.0957" y1="725" y2="725"/><rect fill="none" height="6" style="stroke:#C82930;stroke-width:1.0;" width="6" x="15" y="736.8105"/><text fill="#000000" font-family="sans-serif" font-size="14" lengthAdjust="spacing" textLength="141.6475" x="27" y="744.1074">espacioInterior: double</text><rect fill="none" height="6" style="stroke:#C82930;stroke-width:1.0;" width="6" x="15" y="755.4316"/><text fill="#000000" font-family="sans-serif" font-size="14" lengthAdjust="spacing" textLength="159.5098" x="27" y="762.7285">nivelConfort: NivelConfort</text><line style="stroke:#181818;stroke-width:0.5;" x1="8" x2="221.0957" y1="770.2422" y2="770.2422"/><ellipse cx="18" cy="785.0527" fill="#84BE84" rx="3" ry="3" style="stroke:#038048;stroke-width:1.0;"/><text fill="#000000" font-family="sans-serif" font-size="14" lengthAdjust="spacing" textLength="189.0957" x="27" y="789.3496">calcularDepreciaci&#243;n(): double</text></g><!--class Suv--><g id="elem_Suv"><rect codeLine="36" fill="#F1F1F1" height="103.8633" id="Suv" rx="2.5" ry="2.5" style="stroke:#181818;stroke-width:0.5;" width="194.123" x="257.5" y="693"/><ellipse cx="338.2495" cy="709" fill="#ADD1B2" rx="11" ry="11" style="stroke:#181818;stroke-width:1.0;"/><path d="M341.0151,704.875 Q341.1714,704.6563 341.3589,704.5469 Q341.5464,704.4375 341.7651,704.4375 Q342.1401,704.4375 342.3745,704.7031 Q342.6089,704.9531 342.6089,705.5625 L342.6089,707.0156 Q342.6089,707.625 342.3745,707.8906 Q342.1401,708.1563 341.7651,708.1563 Q341.4214,708.1563 341.2183,707.9531 Q341.0151,707.7656 340.9058,707.25 Q340.8589,706.8906 340.6714,706.7031 Q340.3433,706.3281 339.7339,706.1094 Q339.1245,705.8906 338.4995,705.8906 Q337.7339,705.8906 337.0933,706.2188 Q336.4683,706.5469 335.9683,707.2969 Q335.4839,708.0469 335.4839,709.0781 L335.4839,710.1719 Q335.4839,711.4063 336.3745,712.2344 Q337.2651,713.0469 338.8589,713.0469 Q339.7964,713.0469 340.4526,712.7969 Q340.8433,712.6406 341.2651,712.2031 Q341.5308,711.9375 341.6714,711.8594 Q341.8276,711.7813 342.0308,711.7813 Q342.3589,711.7813 342.6089,712.0469 Q342.8745,712.2969 342.8745,712.6406 Q342.8745,712.9844 342.5308,713.3906 Q342.0308,713.9688 341.2339,714.2969 Q340.1558,714.75 338.8589,714.75 Q337.3433,714.75 336.1401,714.125 Q335.1558,713.625 334.4683,712.5625 Q333.7808,711.4844 333.7808,710.2031 L333.7808,709.0469 Q333.7808,707.7188 334.3901,706.5781 Q335.0151,705.4219 336.1089,704.8125 Q337.2026,704.1875 338.437,704.1875 Q339.1714,704.1875 339.812,704.3594 Q340.4683,704.5156 341.0151,704.875 Z " fill="#000000"/><text fill="#000000" font-family="sans-serif" font-size="14" lengthAdjust="spacing" textLength="24.124" x="358.7495" y="714.7969">Suv</text><line style="stroke:#181818;stroke-width:0.5;" x1="258.5" x2="450.623" y1="725" y2="725"/><rect fill="none" height="6" style="stroke:#C82930;stroke-width:1.0;" width="6" x="265.5" y="736.8105"/><text fill="#000000" font-family="sans-serif" font-size="14" lengthAdjust="spacing" textLength="168.123" x="277.5" y="744.1074">capacidadOffroad: boolean</text><rect fill="none" height="6" style="stroke:#C82930;stroke-width:1.0;" width="6" x="265.5" y="755.4316"/><text fill="#000000" font-family="sans-serif" font-size="14" lengthAdjust="spacing" textLength="151.7783" x="277.5" y="762.7285">alturaLibreSuelo: double</text><line style="stroke:#181818;stroke-width:0.5;" x1="258.5" x2="450.623" y1="770.2422" y2="770.2422"/><ellipse cx="268.5" cy="785.0527" fill="#84BE84" rx="3" ry="3" style="stroke:#038048;stroke-width:1.0;"/><text fill="#000000" font-family="sans-serif" font-size="14" lengthAdjust="spacing" textLength="118.2959" x="277.5" y="789.3496">Valorable(): double</text></g><!--class Deportivo--><g id="elem_Deportivo"><rect codeLine="42" fill="#F1F1F1" height="122.4844" id="Deportivo" rx="2.5" ry="2.5" style="stroke:#181818;stroke-width:0.5;" width="215.0957" x="487" y="684"/><ellipse cx="560.3394" cy="700" fill="#ADD1B2" rx="11" ry="11" style="stroke:#181818;stroke-width:1.0;"/><path d="M563.105,695.875 Q563.2612,695.6563 563.4487,695.5469 Q563.6362,695.4375 563.855,695.4375 Q564.23,695.4375 564.4644,695.7031 Q564.6987,695.9531 564.6987,696.5625 L564.6987,698.0156 Q564.6987,698.625 564.4644,698.8906 Q564.23,699.1563 563.855,699.1563 Q563.5112,699.1563 563.3081,698.9531 Q563.105,698.7656 562.9956,698.25 Q562.9487,697.8906 562.7612,697.7031 Q562.4331,697.3281 561.8237,697.1094 Q561.2144,696.8906 560.5894,696.8906 Q559.8237,696.8906 559.1831,697.2188 Q558.5581,697.5469 558.0581,698.2969 Q557.5737,699.0469 557.5737,700.0781 L557.5737,701.1719 Q557.5737,702.4063 558.4644,703.2344 Q559.355,704.0469 560.9487,704.0469 Q561.8862,704.0469 562.5425,703.7969 Q562.9331,703.6406 563.355,703.2031 Q563.6206,702.9375 563.7612,702.8594 Q563.9175,702.7813 564.1206,702.7813 Q564.4487,702.7813 564.6987,703.0469 Q564.9644,703.2969 564.9644,703.6406 Q564.9644,703.9844 564.6206,704.3906 Q564.1206,704.9688 563.3237,705.2969 Q562.2456,705.75 560.9487,705.75 Q559.4331,705.75 558.23,705.125 Q557.2456,704.625 556.5581,703.5625 Q555.8706,702.4844 555.8706,701.2031 L555.8706,700.0469 Q555.8706,698.7188 556.48,697.5781 Q557.105,696.4219 558.1987,695.8125 Q559.2925,695.1875 560.5269,695.1875 Q561.2612,695.1875 561.9019,695.3594 Q562.5581,695.5156 563.105,695.875 Z " fill="#000000"/><text fill="#000000" font-family="sans-serif" font-size="14" lengthAdjust="spacing" textLength="59.917" x="580.8394" y="705.7969">Deportivo</text><line style="stroke:#181818;stroke-width:0.5;" x1="488" x2="701.0957" y1="716" y2="716"/><rect fill="none" height="6" style="stroke:#C82930;stroke-width:1.0;" width="6" x="495" y="727.8105"/><text fill="#000000" font-family="sans-serif" font-size="14" lengthAdjust="spacing" textLength="160.3506" x="507" y="735.1074">aceleracion0a100: double</text><rect fill="none" height="6" style="stroke:#C82930;stroke-width:1.0;" width="6" x="495" y="746.4316"/><text fill="#000000" font-family="sans-serif" font-size="14" lengthAdjust="spacing" textLength="94.9443" x="507" y="753.7285">potenciaCV: int</text><rect fill="none" height="6" style="stroke:#C82930;stroke-width:1.0;" width="6" x="495" y="765.0527"/><text fill="#000000" font-family="sans-serif" font-size="14" lengthAdjust="spacing" textLength="154.1094" x="507" y="772.3496">tieneModoPista: boolean</text><line style="stroke:#181818;stroke-width:0.5;" x1="488" x2="701.0957" y1="779.8633" y2="779.8633"/><ellipse cx="498" cy="794.6738" fill="#84BE84" rx="3" ry="3" style="stroke:#038048;stroke-width:1.0;"/><text fill="#000000" font-family="sans-serif" font-size="14" lengthAdjust="spacing" textLength="189.0957" x="507" y="798.9707">calcularDepreciaci&#243;n(): double</text></g><!--class Moto--><g id="elem_Moto"><rect codeLine="50" fill="#F1F1F1" height="122.4844" id="Moto" rx="2.5" ry="2.5" style="stroke:#181818;stroke-width:0.5;" width="236.0684" x="1023.5" y="492.5"/><ellipse cx="1121.7222" cy="508.5" fill="#ADD1B2" rx="11" ry="11" style="stroke:#181818;stroke-width:1.0;"/><path d="M1124.4878,504.375 Q1124.644,504.1563 1124.8315,504.0469 Q1125.019,503.9375 1125.2378,503.9375 Q1125.6128,503.9375 1125.8472,504.2031 Q1126.0815,504.4531 1126.0815,505.0625 L1126.0815,506.5156 Q1126.0815,507.125 1125.8472,507.3906 Q1125.6128,507.6563 1125.2378,507.6563 Q1124.894,507.6563 1124.6909,507.4531 Q1124.4878,507.2656 1124.3784,506.75 Q1124.3315,506.3906 1124.144,506.2031 Q1123.8159,505.8281 1123.2065,505.6094 Q1122.5972,505.3906 1121.9722,505.3906 Q1121.2065,505.3906 1120.5659,505.7188 Q1119.9409,506.0469 1119.4409,506.7969 Q1118.9565,507.5469 1118.9565,508.5781 L1118.9565,509.6719 Q1118.9565,510.9063 1119.8472,511.7344 Q1120.7378,512.5469 1122.3315,512.5469 Q1123.269,512.5469 1123.9253,512.2969 Q1124.3159,512.1406 1124.7378,511.7031 Q1125.0034,511.4375 1125.144,511.3594 Q1125.3003,511.2813 1125.5034,511.2813 Q1125.8315,511.2813 1126.0815,511.5469 Q1126.3472,511.7969 1126.3472,512.1406 Q1126.3472,512.4844 1126.0034,512.8906 Q1125.5034,513.4688 1124.7065,513.7969 Q1123.6284,514.25 1122.3315,514.25 Q1120.8159,514.25 1119.6128,513.625 Q1118.6284,513.125 1117.9409,512.0625 Q1117.2534,510.9844 1117.2534,509.7031 L1117.2534,508.5469 Q1117.2534,507.2188 1117.8628,506.0781 Q1118.4878,504.9219 1119.5815,504.3125 Q1120.6753,503.6875 1121.9097,503.6875 Q1122.644,503.6875 1123.2847,503.8594 Q1123.9409,504.0156 1124.4878,504.375 Z " fill="#000000"/><text fill="#000000" font-family="sans-serif" font-size="14" lengthAdjust="spacing" textLength="31.124" x="1142.2222" y="514.2969">Moto</text><line style="stroke:#181818;stroke-width:0.5;" x1="1024.5" x2="1258.5684" y1="524.5" y2="524.5"/><polygon fill="none" points="1034.5,534.3105,1038.5,538.3105,1034.5,542.3105,1030.5,538.3105" style="stroke:#B38D22;stroke-width:1.0;"/><text fill="#000000" font-family="sans-serif" font-size="14" lengthAdjust="spacing" textLength="82.4893" x="1043.5" y="543.6074">cilindrada: int</text><polygon fill="none" points="1034.5,552.9316,1038.5,556.9316,1034.5,560.9316,1030.5,556.9316" style="stroke:#B38D22;stroke-width:1.0;"/><text fill="#000000" font-family="sans-serif" font-size="14" lengthAdjust="spacing" textLength="52.9238" x="1043.5" y="562.2285">peso: int</text><polygon fill="none" points="1034.5,571.5527,1038.5,575.5527,1034.5,579.5527,1030.5,575.5527" style="stroke:#B38D22;stroke-width:1.0;"/><text fill="#000000" font-family="sans-serif" font-size="14" lengthAdjust="spacing" textLength="131.5371" x="1043.5" y="580.8496">alturaAsiento: double</text><polygon fill="none" points="1034.5,590.1738,1038.5,594.1738,1034.5,598.1738,1030.5,594.1738" style="stroke:#B38D22;stroke-width:1.0;"/><text fill="#000000" font-family="sans-serif" font-size="14" lengthAdjust="spacing" textLength="210.0684" x="1043.5" y="599.4707">tipoTransmision: TipoTransmision</text><line style="stroke:#181818;stroke-width:0.5;" x1="1024.5" x2="1258.5684" y1="606.9844" y2="606.9844"/></g><!--class Scooter--><g id="elem_Scooter"><rect codeLine="57" fill="#F1F1F1" height="85.2422" id="Scooter" rx="2.5" ry="2.5" style="stroke:#181818;stroke-width:0.5;" width="215.0957" x="909" y="702.5"/><ellipse cx="988.1738" cy="718.5" fill="#ADD1B2" rx="11" ry="11" style="stroke:#181818;stroke-width:1.0;"/><path d="M990.9395,714.375 Q991.0957,714.1563 991.2832,714.0469 Q991.4707,713.9375 991.6895,713.9375 Q992.0645,713.9375 992.2988,714.2031 Q992.5332,714.4531 992.5332,715.0625 L992.5332,716.5156 Q992.5332,717.125 992.2988,717.3906 Q992.0645,717.6563 991.6895,717.6563 Q991.3457,717.6563 991.1426,717.4531 Q990.9395,717.2656 990.8301,716.75 Q990.7832,716.3906 990.5957,716.2031 Q990.2676,715.8281 989.6582,715.6094 Q989.0488,715.3906 988.4238,715.3906 Q987.6582,715.3906 987.0176,715.7188 Q986.3926,716.0469 985.8926,716.7969 Q985.4082,717.5469 985.4082,718.5781 L985.4082,719.6719 Q985.4082,720.9063 986.2988,721.7344 Q987.1895,722.5469 988.7832,722.5469 Q989.7207,722.5469 990.377,722.2969 Q990.7676,722.1406 991.1895,721.7031 Q991.4551,721.4375 991.5957,721.3594 Q991.752,721.2813 991.9551,721.2813 Q992.2832,721.2813 992.5332,721.5469 Q992.7988,721.7969 992.7988,722.1406 Q992.7988,722.4844 992.4551,722.8906 Q991.9551,723.4688 991.1582,723.7969 Q990.0801,724.25 988.7832,724.25 Q987.2676,724.25 986.0645,723.625 Q985.0801,723.125 984.3926,722.0625 Q983.7051,720.9844 983.7051,719.7031 L983.7051,718.5469 Q983.7051,717.2188 984.3145,716.0781 Q984.9395,714.9219 986.0332,714.3125 Q987.127,713.6875 988.3613,713.6875 Q989.0957,713.6875 989.7363,713.8594 Q990.3926,714.0156 990.9395,714.375 Z " fill="#000000"/><text fill="#000000" font-family="sans-serif" font-size="14" lengthAdjust="spacing" textLength="48.248" x="1008.6738" y="724.2969">Scooter</text><line style="stroke:#181818;stroke-width:0.5;" x1="910" x2="1123.0957" y1="734.5" y2="734.5"/><rect fill="none" height="6" style="stroke:#C82930;stroke-width:1.0;" width="6" x="917" y="746.3105"/><text fill="#000000" font-family="sans-serif" font-size="14" lengthAdjust="spacing" textLength="145.5371" x="929" y="753.6074">espacioBajoAsiento: int</text><line style="stroke:#181818;stroke-width:0.5;" x1="910" x2="1123.0957" y1="761.1211" y2="761.1211"/><ellipse cx="920" cy="775.9316" fill="#84BE84" rx="3" ry="3" style="stroke:#038048;stroke-width:1.0;"/><text fill="#000000" font-family="sans-serif" font-size="14" lengthAdjust="spacing" textLength="189.0957" x="929" y="780.2285">calcularDepreciaci&#243;n(): double</text></g><!--class Deportiva--><g id="elem_Deportiva"><rect codeLine="63" fill="#F1F1F1" height="103.8633" id="Deportiva" rx="2.5" ry="2.5" style="stroke:#181818;stroke-width:0.5;" width="215.0957" x="1159" y="693"/><ellipse cx="1232.3394" cy="709" fill="#ADD1B2" rx="11" ry="11" style="stroke:#181818;stroke-width:1.0;"/><path d="M1235.105,704.875 Q1235.2612,704.6563 1235.4487,704.5469 Q1235.6362,704.4375 1235.855,704.4375 Q1236.23,704.4375 1236.4644,704.7031 Q1236.6987,704.9531 1236.6987,705.5625 L1236.6987,707.0156 Q1236.6987,707.625 1236.4644,707.8906 Q1236.23,708.1563 1235.855,708.1563 Q1235.5112,708.1563 1235.3081,707.9531 Q1235.105,707.7656 1234.9956,707.25 Q1234.9487,706.8906 1234.7612,706.7031 Q1234.4331,706.3281 1233.8237,706.1094 Q1233.2144,705.8906 1232.5894,705.8906 Q1231.8237,705.8906 1231.1831,706.2188 Q1230.5581,706.5469 1230.0581,707.2969 Q1229.5737,708.0469 1229.5737,709.0781 L1229.5737,710.1719 Q1229.5737,711.4063 1230.4644,712.2344 Q1231.355,713.0469 1232.9487,713.0469 Q1233.8862,713.0469 1234.5425,712.7969 Q1234.9331,712.6406 1235.355,712.2031 Q1235.6206,711.9375 1235.7612,711.8594 Q1235.9175,711.7813 1236.1206,711.7813 Q1236.4487,711.7813 1236.6987,712.0469 Q1236.9644,712.2969 1236.9644,712.6406 Q1236.9644,712.9844 1236.6206,713.3906 Q1236.1206,713.9688 1235.3237,714.2969 Q1234.2456,714.75 1232.9487,714.75 Q1231.4331,714.75 1230.23,714.125 Q1229.2456,713.625 1228.5581,712.5625 Q1227.8706,711.4844 1227.8706,710.2031 L1227.8706,709.0469 Q1227.8706,707.7188 1228.48,706.5781 Q1229.105,705.4219 1230.1987,704.8125 Q1231.2925,704.1875 1232.5269,704.1875 Q1233.2612,704.1875 1233.9019,704.3594 Q1234.5581,704.5156 1235.105,704.875 Z " fill="#000000"/><text fill="#000000" font-family="sans-serif" font-size="14" lengthAdjust="spacing" textLength="59.917" x="1252.8394" y="714.7969">Deportiva</text><line style="stroke:#181818;stroke-width:0.5;" x1="1160" x2="1373.0957" y1="725" y2="725"/><rect fill="none" height="6" style="stroke:#C82930;stroke-width:1.0;" width="6" x="1167" y="736.8105"/><text fill="#000000" font-family="sans-serif" font-size="14" lengthAdjust="spacing" textLength="157.9785" x="1179" y="744.1074">velocidadMaxima: double</text><rect fill="none" height="6" style="stroke:#C82930;stroke-width:1.0;" width="6" x="1167" y="755.4316"/><text fill="#000000" font-family="sans-serif" font-size="14" lengthAdjust="spacing" textLength="164.2129" x="1179" y="762.7285">tieneQuickShifter: boolean</text><line style="stroke:#181818;stroke-width:0.5;" x1="1160" x2="1373.0957" y1="770.2422" y2="770.2422"/><ellipse cx="1170" cy="785.0527" fill="#84BE84" rx="3" ry="3" style="stroke:#038048;stroke-width:1.0;"/><text fill="#000000" font-family="sans-serif" font-size="14" lengthAdjust="spacing" textLength="189.0957" x="1179" y="789.3496">calcularDepreciaci&#243;n(): double</text></g><!--class Camion--><g id="elem_Camion"><rect codeLine="70" fill="#F1F1F1" height="141.1055" id="Camion" rx="2.5" ry="2.5" style="stroke:#181818;stroke-width:0.5;" width="215.0957" x="1295" y="483"/><ellipse cx="1374.1772" cy="499" fill="#ADD1B2" rx="11" ry="11" style="stroke:#181818;stroke-width:1.0;"/><path d="M1376.9429,494.875 Q1377.0991,494.6563 1377.2866,494.5469 Q1377.4741,494.4375 1377.6929,494.4375 Q1378.0679,494.4375 1378.3022,494.7031 Q1378.5366,494.9531 1378.5366,495.5625 L1378.5366,497.0156 Q1378.5366,497.625 1378.3022,497.8906 Q1378.0679,498.1563 1377.6929,498.1563 Q1377.3491,498.1563 1377.146,497.9531 Q1376.9429,497.7656 1376.8335,497.25 Q1376.7866,496.8906 1376.5991,496.7031 Q1376.271,496.3281 1375.6616,496.1094 Q1375.0522,495.8906 1374.4272,495.8906 Q1373.6616,495.8906 1373.021,496.2188 Q1372.396,496.5469 1371.896,497.2969 Q1371.4116,498.0469 1371.4116,499.0781 L1371.4116,500.1719 Q1371.4116,501.4063 1372.3022,502.2344 Q1373.1929,503.0469 1374.7866,503.0469 Q1375.7241,503.0469 1376.3804,502.7969 Q1376.771,502.6406 1377.1929,502.2031 Q1377.4585,501.9375 1377.5991,501.8594 Q1377.7554,501.7813 1377.9585,501.7813 Q1378.2866,501.7813 1378.5366,502.0469 Q1378.8022,502.2969 1378.8022,502.6406 Q1378.8022,502.9844 1378.4585,503.3906 Q1377.9585,503.9688 1377.1616,504.2969 Q1376.0835,504.75 1374.7866,504.75 Q1373.271,504.75 1372.0679,504.125 Q1371.0835,503.625 1370.396,502.5625 Q1369.7085,501.4844 1369.7085,500.2031 L1369.7085,499.0469 Q1369.7085,497.7188 1370.3179,496.5781 Q1370.9429,495.4219 1372.0366,494.8125 Q1373.1304,494.1875 1374.3647,494.1875 Q1375.0991,494.1875 1375.7397,494.3594 Q1376.396,494.5156 1376.9429,494.875 Z " fill="#000000"/><text fill="#000000" font-family="sans-serif" font-size="14" lengthAdjust="spacing" textLength="48.2412" x="1394.6772" y="504.7969">Camion</text><line style="stroke:#181818;stroke-width:0.5;" x1="1296" x2="1509.0957" y1="515" y2="515"/><rect fill="none" height="6" style="stroke:#C82930;stroke-width:1.0;" width="6" x="1303" y="526.8105"/><text fill="#000000" font-family="sans-serif" font-size="14" lengthAdjust="spacing" textLength="151.7783" x="1315" y="534.1074">capacidadCarga: double</text><rect fill="none" height="6" style="stroke:#C82930;stroke-width:1.0;" width="6" x="1303" y="545.4316"/><text fill="#000000" font-family="sans-serif" font-size="14" lengthAdjust="spacing" textLength="77.0342" x="1315" y="552.7285">numEjes: int</text><rect fill="none" height="6" style="stroke:#C82930;stroke-width:1.0;" width="6" x="1303" y="564.0527"/><text fill="#000000" font-family="sans-serif" font-size="14" lengthAdjust="spacing" textLength="162.6748" x="1315" y="571.3496">longitudRemolque: double</text><rect fill="none" height="6" style="stroke:#C82930;stroke-width:1.0;" width="6" x="1303" y="582.6738"/><text fill="#000000" font-family="sans-serif" font-size="14" lengthAdjust="spacing" textLength="111.2822" x="1315" y="589.9707">potenciaMotor: int</text><line style="stroke:#181818;stroke-width:0.5;" x1="1296" x2="1509.0957" y1="597.4844" y2="597.4844"/><ellipse cx="1306" cy="612.2949" fill="#84BE84" rx="3" ry="3" style="stroke:#038048;stroke-width:1.0;"/><text fill="#000000" font-family="sans-serif" font-size="14" lengthAdjust="spacing" textLength="189.0957" x="1315" y="616.5918">calcularDepreciaci&#243;n(): double</text></g><!--class Persona--><g id="elem_Persona"><rect codeLine="79" fill="#F1F1F1" height="122.4844" id="Persona" rx="2.5" ry="2.5" style="stroke:#181818;stroke-width:0.5;" width="240.0264" x="1545.5" y="492.5"/><ellipse cx="1635.1909" cy="508.5" fill="#ADD1B2" rx="11" ry="11" style="stroke:#181818;stroke-width:1.0;"/><path d="M1637.9565,504.375 Q1638.1128,504.1563 1638.3003,504.0469 Q1638.4878,503.9375 1638.7065,503.9375 Q1639.0815,503.9375 1639.3159,504.2031 Q1639.5503,504.4531 1639.5503,505.0625 L1639.5503,506.5156 Q1639.5503,507.125 1639.3159,507.3906 Q1639.0815,507.6563 1638.7065,507.6563 Q1638.3628,507.6563 1638.1597,507.4531 Q1637.9565,507.2656 1637.8472,506.75 Q1637.8003,506.3906 1637.6128,506.2031 Q1637.2847,505.8281 1636.6753,505.6094 Q1636.0659,505.3906 1635.4409,505.3906 Q1634.6753,505.3906 1634.0347,505.7188 Q1633.4097,506.0469 1632.9097,506.7969 Q1632.4253,507.5469 1632.4253,508.5781 L1632.4253,509.6719 Q1632.4253,510.9063 1633.3159,511.7344 Q1634.2065,512.5469 1635.8003,512.5469 Q1636.7378,512.5469 1637.394,512.2969 Q1637.7847,512.1406 1638.2065,511.7031 Q1638.4722,511.4375 1638.6128,511.3594 Q1638.769,511.2813 1638.9722,511.2813 Q1639.3003,511.2813 1639.5503,511.5469 Q1639.8159,511.7969 1639.8159,512.1406 Q1639.8159,512.4844 1639.4722,512.8906 Q1638.9722,513.4688 1638.1753,513.7969 Q1637.0972,514.25 1635.8003,514.25 Q1634.2847,514.25 1633.0815,513.625 Q1632.0972,513.125 1631.4097,512.0625 Q1630.7222,510.9844 1630.7222,509.7031 L1630.7222,508.5469 Q1630.7222,507.2188 1631.3315,506.0781 Q1631.9565,504.9219 1633.0503,504.3125 Q1634.144,503.6875 1635.3784,503.6875 Q1636.1128,503.6875 1636.7534,503.8594 Q1637.4097,504.0156 1637.9565,504.375 Z " fill="#000000"/><text fill="#000000" font-family="sans-serif" font-size="14" lengthAdjust="spacing" textLength="52.1445" x="1655.6909" y="514.2969">Persona</text><line style="stroke:#181818;stroke-width:0.5;" x1="1546.5" x2="1784.5264" y1="524.5" y2="524.5"/><rect fill="none" height="6" style="stroke:#C82930;stroke-width:1.0;" width="6" x="1553.5" y="536.3105"/><text fill="#000000" font-family="sans-serif" font-size="14" lengthAdjust="spacing" textLength="91.8203" x="1565.5" y="543.6074">nombre: String</text><rect fill="none" height="6" style="stroke:#C82930;stroke-width:1.0;" width="6" x="1553.5" y="554.9316"/><text fill="#000000" font-family="sans-serif" font-size="14" lengthAdjust="spacing" textLength="63.0342" x="1565.5" y="562.2285">dni: String</text><rect fill="none" height="6" style="stroke:#C82930;stroke-width:1.0;" width="6" x="1553.5" y="573.5527"/><text fill="#000000" font-family="sans-serif" font-size="14" lengthAdjust="spacing" textLength="214.0264" x="1565.5" y="580.8496">fechaCaducidadCarnet: LocalDate</text><rect fill="none" height="6" style="stroke:#C82930;stroke-width:1.0;" width="6" x="1553.5" y="592.1738"/><text fill="#000000" font-family="sans-serif" font-size="14" lengthAdjust="spacing" textLength="115.9512" x="1565.5" y="599.4707">a&#241;oNacimiento: int</text><line style="stroke:#181818;stroke-width:0.5;" x1="1546.5" x2="1784.5264" y1="606.9844" y2="606.9844"/></g><!--class Valorable--><g id="elem_Valorable"><rect codeLine="86" fill="#F1F1F1" height="66.6211" id="Valorable" rx="2.5" ry="2.5" style="stroke:#181818;stroke-width:0.5;" width="215.0957" x="1821" y="520"/><ellipse cx="1894.7222" cy="536" fill="#B4A7E5" rx="11" ry="11" style="stroke:#181818;stroke-width:1.0;"/><path d="M1895.6753,532.6406 L1895.6753,539.2969 L1897.394,539.2969 Q1898.0034,539.2969 1898.269,539.5313 Q1898.5347,539.7656 1898.5347,540.1563 Q1898.5347,540.5313 1898.269,540.7656 Q1898.0034,541 1897.394,541 L1892.2534,541 Q1891.644,541 1891.3784,540.7656 Q1891.1128,540.5313 1891.1128,540.1406 Q1891.1128,539.7656 1891.3784,539.5313 Q1891.644,539.2969 1892.2534,539.2969 L1893.9722,539.2969 L1893.9722,532.6406 L1892.2534,532.6406 Q1891.644,532.6406 1891.3784,532.4063 Q1891.1128,532.1719 1891.1128,531.7813 Q1891.1128,531.4063 1891.3784,531.1719 Q1891.644,530.9375 1892.2534,530.9375 L1897.394,530.9375 Q1898.0034,530.9375 1898.269,531.1719 Q1898.5347,531.4063 1898.5347,531.7813 Q1898.5347,532.1719 1898.269,532.4063 Q1898.0034,532.6406 1897.394,532.6406 L1895.6753,532.6406 Z " fill="#000000"/><text fill="#000000" font-family="sans-serif" font-size="14" font-style="italic" lengthAdjust="spacing" textLength="59.1514" x="1915.2222" y="541.7969">Valorable</text><line style="stroke:#181818;stroke-width:0.5;" x1="1822" x2="2035.0957" y1="552" y2="552"/><line style="stroke:#181818;stroke-width:0.5;" x1="1822" x2="2035.0957" y1="560" y2="560"/><ellipse cx="1832" cy="574.8105" fill="#84BE84" rx="3" ry="3" style="stroke:#038048;stroke-width:1.0;"/><text fill="#000000" font-family="sans-serif" font-size="14" lengthAdjust="spacing" textLength="189.0957" x="1841" y="579.1074">calcularDepreciaci&#243;n(): double</text></g><!--class Estado--><g id="elem_Estado"><rect codeLine="90" fill="#F1F1F1" height="85.2422" id="Estado" rx="2.5" ry="2.5" style="stroke:#181818;stroke-width:0.5;" width="96.0273" x="2071.5" y="511"/><ellipse cx="2095.6986" cy="527" fill="#EB937F" rx="11" ry="11" style="stroke:#181818;stroke-width:1.0;"/><path d="M2094.558,527.7969 L2094.558,530.2969 L2098.8861,530.2969 L2098.8861,529.375 Q2098.8861,528.7656 2099.1205,528.5 Q2099.3705,528.2344 2099.7455,528.2344 Q2100.1205,528.2344 2100.3549,528.5 Q2100.5893,528.7656 2100.5893,529.375 L2100.5893,532 L2092.5893,532 Q2091.9643,532 2091.6986,531.7656 Q2091.4486,531.5313 2091.4486,531.1406 Q2091.4486,530.7656 2091.7143,530.5313 Q2091.9799,530.2969 2092.5893,530.2969 L2092.8549,530.2969 L2092.8549,523.6406 L2092.5893,523.6406 Q2091.9643,523.6406 2091.6986,523.4063 Q2091.4486,523.1719 2091.4486,522.7813 Q2091.4486,522.4063 2091.6986,522.1719 Q2091.9643,521.9375 2092.5893,521.9375 L2100.2143,521.9375 L2100.2143,524.5313 Q2100.2143,525.1406 2099.9799,525.4063 Q2099.7611,525.6563 2099.3705,525.6563 Q2098.9955,525.6563 2098.7611,525.4063 Q2098.5268,525.1406 2098.5268,524.5313 L2098.5268,523.6406 L2094.558,523.6406 L2094.558,526.0938 L2096.0424,526.0938 Q2096.0424,525.4375 2096.1674,525.25 Q2096.433,524.8438 2096.9018,524.8438 Q2097.2768,524.8438 2097.5111,525.1094 Q2097.7455,525.3594 2097.7455,525.9688 L2097.7455,527.9375 Q2097.7455,528.4844 2097.6205,528.6719 Q2097.3549,529.0625 2096.9018,529.0625 Q2096.433,529.0625 2096.1674,528.6563 Q2096.0424,528.4688 2096.0424,527.7969 L2094.558,527.7969 Z " fill="#000000"/><text fill="#000000" font-family="sans-serif" font-size="14" lengthAdjust="spacing" textLength="43.5859" x="2111.7428" y="532.7969">Estado</text><line style="stroke:#181818;stroke-width:0.5;" x1="2072.5" x2="2166.5273" y1="543" y2="543"/><text fill="#000000" font-family="sans-serif" font-size="14" lengthAdjust="spacing" textLength="84.0273" x="2077.5" y="562.1074">DISPONIBLE</text><text fill="#000000" font-family="sans-serif" font-size="14" lengthAdjust="spacing" textLength="63.7861" x="2077.5" y="580.7285">VENDIDO</text><line style="stroke:#181818;stroke-width:0.5;" x1="2072.5" x2="2166.5273" y1="588.2422" y2="588.2422"/></g><!--class TipoCombustible--><g id="elem_TipoCombustible"><rect codeLine="95" fill="#F1F1F1" height="122.4844" id="TipoCombustible" rx="2.5" ry="2.5" style="stroke:#181818;stroke-width:0.5;" width="137.0479" x="737" y="684"/><ellipse cx="752" cy="700" fill="#EB937F" rx="11" ry="11" style="stroke:#181818;stroke-width:1.0;"/><path d="M750.8594,700.7969 L750.8594,703.2969 L755.1875,703.2969 L755.1875,702.375 Q755.1875,701.7656 755.4219,701.5 Q755.6719,701.2344 756.0469,701.2344 Q756.4219,701.2344 756.6563,701.5 Q756.8906,701.7656 756.8906,702.375 L756.8906,705 L748.8906,705 Q748.2656,705 748,704.7656 Q747.75,704.5313 747.75,704.1406 Q747.75,703.7656 748.0156,703.5313 Q748.2813,703.2969 748.8906,703.2969 L749.1563,703.2969 L749.1563,696.6406 L748.8906,696.6406 Q748.2656,696.6406 748,696.4063 Q747.75,696.1719 747.75,695.7813 Q747.75,695.4063 748,695.1719 Q748.2656,694.9375 748.8906,694.9375 L756.5156,694.9375 L756.5156,697.5313 Q756.5156,698.1406 756.2813,698.4063 Q756.0625,698.6563 755.6719,698.6563 Q755.2969,698.6563 755.0625,698.4063 Q754.8281,698.1406 754.8281,697.5313 L754.8281,696.6406 L750.8594,696.6406 L750.8594,699.0938 L752.3438,699.0938 Q752.3438,698.4375 752.4688,698.25 Q752.7344,697.8438 753.2031,697.8438 Q753.5781,697.8438 753.8125,698.1094 Q754.0469,698.3594 754.0469,698.9688 L754.0469,700.9375 Q754.0469,701.4844 753.9219,701.6719 Q753.6563,702.0625 753.2031,702.0625 Q752.7344,702.0625 752.4688,701.6563 Q752.3438,701.4688 752.3438,700.7969 L750.8594,700.7969 Z " fill="#000000"/><text fill="#000000" font-family="sans-serif" font-size="14" lengthAdjust="spacing" textLength="105.0479" x="766" y="705.7969">TipoCombustible</text><line style="stroke:#181818;stroke-width:0.5;" x1="738" x2="873.0479" y1="716" y2="716"/><text fill="#000000" font-family="sans-serif" font-size="14" lengthAdjust="spacing" textLength="71.5791" x="743" y="735.1074">GASOLINA</text><text fill="#000000" font-family="sans-serif" font-size="14" lengthAdjust="spacing" textLength="49.7998" x="743" y="753.7285">DIESEL</text><text fill="#000000" font-family="sans-serif" font-size="14" lengthAdjust="spacing" textLength="58.3379" x="743" y="772.3496">H&#205;BRIDO</text><text fill="#000000" font-family="sans-serif" font-size="14" lengthAdjust="spacing" textLength="80.124" x="743" y="790.9707">EL&#201;CTRICO</text><line style="stroke:#181818;stroke-width:0.5;" x1="738" x2="873.0479" y1="798.4844" y2="798.4844"/></g><!--class Traccion--><g id="elem_Traccion"><rect codeLine="102" fill="#F1F1F1" height="103.8633" id="Traccion" rx="2.5" ry="2.5" style="stroke:#181818;stroke-width:0.5;" width="96.0205" x="306.5" y="866"/><ellipse cx="326.1521" cy="882" fill="#EB937F" rx="11" ry="11" style="stroke:#181818;stroke-width:1.0;"/><path d="M325.0114,882.7969 L325.0114,885.2969 L329.3396,885.2969 L329.3396,884.375 Q329.3396,883.7656 329.5739,883.5 Q329.8239,883.2344 330.1989,883.2344 Q330.5739,883.2344 330.8083,883.5 Q331.0427,883.7656 331.0427,884.375 L331.0427,887 L323.0427,887 Q322.4177,887 322.1521,886.7656 Q321.9021,886.5313 321.9021,886.1406 Q321.9021,885.7656 322.1677,885.5313 Q322.4333,885.2969 323.0427,885.2969 L323.3083,885.2969 L323.3083,878.6406 L323.0427,878.6406 Q322.4177,878.6406 322.1521,878.4063 Q321.9021,878.1719 321.9021,877.7813 Q321.9021,877.4063 322.1521,877.1719 Q322.4177,876.9375 323.0427,876.9375 L330.6677,876.9375 L330.6677,879.5313 Q330.6677,880.1406 330.4333,880.4063 Q330.2146,880.6563 329.8239,880.6563 Q329.4489,880.6563 329.2146,880.4063 Q328.9802,880.1406 328.9802,879.5313 L328.9802,878.6406 L325.0114,878.6406 L325.0114,881.0938 L326.4958,881.0938 Q326.4958,880.4375 326.6208,880.25 Q326.8864,879.8438 327.3552,879.8438 Q327.7302,879.8438 327.9646,880.1094 Q328.1989,880.3594 328.1989,880.9688 L328.1989,882.9375 Q328.1989,883.4844 328.0739,883.6719 Q327.8083,884.0625 327.3552,884.0625 Q326.8864,884.0625 326.6208,883.6563 Q326.4958,883.4688 326.4958,882.7969 L325.0114,882.7969 Z " fill="#000000"/><text fill="#000000" font-family="sans-serif" font-size="14" lengthAdjust="spacing" textLength="53.6826" x="341.1858" y="887.7969">Traccion</text><line style="stroke:#181818;stroke-width:0.5;" x1="307.5" x2="401.5205" y1="898" y2="898"/><text fill="#000000" font-family="sans-serif" font-size="14" lengthAdjust="spacing" textLength="84.0205" x="312.5" y="917.1074">DELANTERA</text><text fill="#000000" font-family="sans-serif" font-size="14" lengthAdjust="spacing" textLength="66.124" x="312.5" y="935.7285">TRASERA</text><text fill="#000000" font-family="sans-serif" font-size="14" lengthAdjust="spacing" textLength="24.9102" x="312.5" y="954.3496">4X4</text><line style="stroke:#181818;stroke-width:0.5;" x1="307.5" x2="401.5205" y1="961.8633" y2="961.8633"/></g><!--class NivelConfort--><g id="elem_NivelConfort"><rect codeLine="108" fill="#F1F1F1" height="103.8633" id="NivelConfort" rx="2.5" ry="2.5" style="stroke:#181818;stroke-width:0.5;" width="109.0273" x="60" y="866"/><ellipse cx="75" cy="882" fill="#EB937F" rx="11" ry="11" style="stroke:#181818;stroke-width:1.0;"/><path d="M73.8594,882.7969 L73.8594,885.2969 L78.1875,885.2969 L78.1875,884.375 Q78.1875,883.7656 78.4219,883.5 Q78.6719,883.2344 79.0469,883.2344 Q79.4219,883.2344 79.6563,883.5 Q79.8906,883.7656 79.8906,884.375 L79.8906,887 L71.8906,887 Q71.2656,887 71,886.7656 Q70.75,886.5313 70.75,886.1406 Q70.75,885.7656 71.0156,885.5313 Q71.2813,885.2969 71.8906,885.2969 L72.1563,885.2969 L72.1563,878.6406 L71.8906,878.6406 Q71.2656,878.6406 71,878.4063 Q70.75,878.1719 70.75,877.7813 Q70.75,877.4063 71,877.1719 Q71.2656,876.9375 71.8906,876.9375 L79.5156,876.9375 L79.5156,879.5313 Q79.5156,880.1406 79.2813,880.4063 Q79.0625,880.6563 78.6719,880.6563 Q78.2969,880.6563 78.0625,880.4063 Q77.8281,880.1406 77.8281,879.5313 L77.8281,878.6406 L73.8594,878.6406 L73.8594,881.0938 L75.3438,881.0938 Q75.3438,880.4375 75.4688,880.25 Q75.7344,879.8438 76.2031,879.8438 Q76.5781,879.8438 76.8125,880.1094 Q77.0469,880.3594 77.0469,880.9688 L77.0469,882.9375 Q77.0469,883.4844 76.9219,883.6719 Q76.6563,884.0625 76.2031,884.0625 Q75.7344,884.0625 75.4688,883.6563 Q75.3438,883.4688 75.3438,882.7969 L73.8594,882.7969 Z " fill="#000000"/><text fill="#000000" font-family="sans-serif" font-size="14" lengthAdjust="spacing" textLength="77.0273" x="89" y="887.7969">NivelConfort</text><line style="stroke:#181818;stroke-width:0.5;" x1="61" x2="168.0273" y1="898" y2="898"/><text fill="#000000" font-family="sans-serif" font-size="14" lengthAdjust="spacing" textLength="52.9033" x="66" y="917.1074">B&#193;SICO</text><text fill="#000000" font-family="sans-serif" font-size="14" lengthAdjust="spacing" textLength="45.8896" x="66" y="935.7285">MEDIO</text><text fill="#000000" font-family="sans-serif" font-size="14" lengthAdjust="spacing" textLength="66.1104" x="66" y="954.3496">PREMIUM</text><line style="stroke:#181818;stroke-width:0.5;" x1="61" x2="168.0273" y1="961.8633" y2="961.8633"/></g><!--class TipoTransmision--><g id="elem_TipoTransmision"><rect codeLine="114" fill="#F1F1F1" height="85.2422" id="TipoTransmision" rx="2.5" ry="2.5" style="stroke:#181818;stroke-width:0.5;" width="135.4756" x="1409" y="702.5"/><ellipse cx="1424" cy="718.5" fill="#EB937F" rx="11" ry="11" style="stroke:#181818;stroke-width:1.0;"/><path d="M1422.8594,719.2969 L1422.8594,721.7969 L1427.1875,721.7969 L1427.1875,720.875 Q1427.1875,720.2656 1427.4219,720 Q1427.6719,719.7344 1428.0469,719.7344 Q1428.4219,719.7344 1428.6563,720 Q1428.8906,720.2656 1428.8906,720.875 L1428.8906,723.5 L1420.8906,723.5 Q1420.2656,723.5 1420,723.2656 Q1419.75,723.0313 1419.75,722.6406 Q1419.75,722.2656 1420.0156,722.0313 Q1420.2813,721.7969 1420.8906,721.7969 L1421.1563,721.7969 L1421.1563,715.1406 L1420.8906,715.1406 Q1420.2656,715.1406 1420,714.9063 Q1419.75,714.6719 1419.75,714.2813 Q1419.75,713.9063 1420,713.6719 Q1420.2656,713.4375 1420.8906,713.4375 L1428.5156,713.4375 L1428.5156,716.0313 Q1428.5156,716.6406 1428.2813,716.9063 Q1428.0625,717.1563 1427.6719,717.1563 Q1427.2969,717.1563 1427.0625,716.9063 Q1426.8281,716.6406 1426.8281,716.0313 L1426.8281,715.1406 L1422.8594,715.1406 L1422.8594,717.5938 L1424.3438,717.5938 Q1424.3438,716.9375 1424.4688,716.75 Q1424.7344,716.3438 1425.2031,716.3438 Q1425.5781,716.3438 1425.8125,716.6094 Q1426.0469,716.8594 1426.0469,717.4688 L1426.0469,719.4375 Q1426.0469,719.9844 1425.9219,720.1719 Q1425.6563,720.5625 1425.2031,720.5625 Q1424.7344,720.5625 1424.4688,720.1563 Q1424.3438,719.9688 1424.3438,719.2969 L1422.8594,719.2969 Z " fill="#000000"/><text fill="#000000" font-family="sans-serif" font-size="14" lengthAdjust="spacing" textLength="103.4756" x="1438" y="724.2969">TipoTransmision</text><line style="stroke:#181818;stroke-width:0.5;" x1="1410" x2="1543.4756" y1="734.5" y2="734.5"/><text fill="#000000" font-family="sans-serif" font-size="14" lengthAdjust="spacing" textLength="58.3447" x="1415" y="753.6074">MANUAL</text><text fill="#000000" font-family="sans-serif" font-size="14" lengthAdjust="spacing" textLength="91.7793" x="1415" y="772.2285">AUTOM&#193;TICA</text><line style="stroke:#181818;stroke-width:0.5;" x1="1410" x2="1543.4756" y1="779.7422" y2="779.7422"/></g><!--link Concesionario to Vehiculo--><g id="link_Concesionario_Vehiculo"><path codeLine="119" d="M1533.5,129.16 C1533.5,147.46 1533.5,162.23 1533.5,182.91 " fill="none" id="Concesionario-to-Vehiculo" style="stroke:#181818;stroke-width:1.0;"/><polygon fill="#181818" points="1533.5,188.91,1537.5,179.91,1533.5,183.91,1529.5,179.91,1533.5,188.91" style="stroke:#181818;stroke-width:1.0;"/></g><!--link Vehiculo to Persona--><g id="link_Vehiculo_Persona"><path codeLine="120" d="M1596.02,423.28 C1608.88,447.2 1619.0793,466.1651 1630.3293,487.0951 " fill="none" id="Vehiculo-to-Persona" style="stroke:#181818;stroke-width:1.0;"/><polygon fill="#181818" points="1633.17,492.38,1632.4323,482.5588,1630.8028,487.9759,1625.3857,486.3464,1633.17,492.38" style="stroke:#181818;stroke-width:1.0;"/></g><!--link Vehiculo to Estado--><g id="link_Vehiculo_Estado"><path codeLine="121" d="M1619.17,322.7 C1727.03,345.32 1914.98,394.45 2053.5,483 C2065.28,490.53 2072.287,496.26 2081.957,506.39 " fill="none" id="Vehiculo-to-Estado" style="stroke:#181818;stroke-width:1.0;"/><polygon fill="#181818" points="2086.1,510.73,2082.7789,501.458,2082.6475,507.1133,2076.9922,506.9819,2086.1,510.73" style="stroke:#181818;stroke-width:1.0;"/></g><!--link Vehiculo to Valorable--><g id="link_Vehiculo_Valorable"><path codeLine="122" d="M1619.21,360.27 C1697.38,408.85 1795.0918,469.5888 1860.6618,510.3388 " fill="none" id="Vehiculo-to-Valorable" style="stroke:#181818;stroke-width:1.0;stroke-dasharray:7.0,7.0;"/><polygon fill="none" points="1875.95,519.84,1863.8289,505.2428,1857.4948,515.4349,1875.95,519.84" style="stroke:#181818;stroke-width:1.0;"/></g><!--reverse link Vehiculo to Coche--><g id="link_Vehiculo_Coche"><path codeLine="123" d="M1430.2652,333.9926 C1262.1852,377.9326 906.7,470.88 714.37,521.16 " fill="none" id="Vehiculo-backto-Coche" style="stroke:#181818;stroke-width:1.0;"/><polygon fill="none" points="1447.68,329.44,1428.7477,328.1877,1431.7828,339.7975,1447.68,329.44" style="stroke:#181818;stroke-width:1.0;"/></g><!--reverse link Vehiculo to Moto--><g id="link_Vehiculo_Moto"><path codeLine="124" d="M1432.7045,370.1235 C1370.6345,408.9935 1301.89,452.05 1237.53,492.36 " fill="none" id="Vehiculo-backto-Moto" style="stroke:#181818;stroke-width:1.0;"/><polygon fill="none" points="1447.96,360.57,1429.52,365.0383,1435.8889,375.2086,1447.96,360.57" style="stroke:#181818;stroke-width:1.0;"/></g><!--reverse link Vehiculo to Camion--><g id="link_Vehiculo_Camion"><path codeLine="125" d="M1462.9778,439.1615 C1452.1378,459.4815 1449.63,464.17 1439.73,482.73 " fill="none" id="Vehiculo-backto-Camion" style="stroke:#181818;stroke-width:1.0;"/><polygon fill="none" points="1471.45,423.28,1457.684,436.3374,1468.2716,441.9856,1471.45,423.28" style="stroke:#181818;stroke-width:1.0;"/></g><!--reverse link Coche to Sedan--><g id="link_Coche_Sedan"><path codeLine="126" d="M457.636,600.8734 C388.296,625.0834 316.74,651.47 239.5,684 C232.73,686.85 225.81,689.87 218.85,692.99 " fill="none" id="Coche-backto-Sedan" style="stroke:#181818;stroke-width:1.0;"/><polygon fill="none" points="474.63,594.94,455.6582,595.2088,459.6139,606.5381,474.63,594.94" style="stroke:#181818;stroke-width:1.0;"/></g><!--reverse link Coche to Suv--><g id="link_Coche_Suv"><path codeLine="127" d="M504.1028,625.8745 C472.2628,651.0145 449.79,668.76 419.27,692.86 " fill="none" id="Coche-backto-Suv" style="stroke:#181818;stroke-width:1.0;"/><polygon fill="none" points="518.23,614.72,500.3846,621.1654,507.8209,630.5835,518.23,614.72" style="stroke:#181818;stroke-width:1.0;"/></g><!--reverse link Coche to Deportivo--><g id="link_Coche_Deportivo"><path codeLine="128" d="M594.5,632.72 C594.5,654.83 594.5,661.84 594.5,683.94 " fill="none" id="Coche-backto-Deportivo" style="stroke:#181818;stroke-width:1.0;"/><polygon fill="none" points="594.5,614.72,588.5,632.72,600.5,632.72,594.5,614.72" style="stroke:#181818;stroke-width:1.0;"/></g><!--link Coche to TipoCombustible--><g id="link_Coche_TipoCombustible"><path codeLine="129" d="M661.55,614.72 C686.17,636.83 709.5566,657.8302 734.1566,679.9302 " fill="none" id="Coche-to-TipoCombustible" style="stroke:#181818;stroke-width:1.0;"/><polygon fill="#181818" points="738.62,683.94,734.5981,674.9498,734.9005,680.5985,729.2518,680.9009,738.62,683.94" style="stroke:#181818;stroke-width:1.0;"/></g><!--link Sedan to NivelConfort--><g id="link_Sedan_NivelConfort"><path codeLine="130" d="M114.5,797.31 C114.5,818.95 114.5,838.09 114.5,859.73 " fill="none" id="Sedan-to-NivelConfort" style="stroke:#181818;stroke-width:1.0;"/><polygon fill="#181818" points="114.5,865.73,118.5,856.73,114.5,860.73,110.5,856.73,114.5,865.73" style="stroke:#181818;stroke-width:1.0;"/></g><!--link Suv to Traccion--><g id="link_Suv_Traccion"><path codeLine="131" d="M354.5,797.31 C354.5,818.95 354.5,838.09 354.5,859.73 " fill="none" id="Suv-to-Traccion" style="stroke:#181818;stroke-width:1.0;"/><polygon fill="#181818" points="354.5,865.73,358.5,856.73,354.5,860.73,350.5,856.73,354.5,865.73" style="stroke:#181818;stroke-width:1.0;"/></g><!--reverse link Moto to Scooter--><g id="link_Moto_Scooter"><path codeLine="132" d="M1091.8685,629.7454 C1073.0685,658.2454 1060.99,676.55 1044.05,702.23 " fill="none" id="Moto-backto-Scooter" style="stroke:#181818;stroke-width:1.0;"/><polygon fill="none" points="1101.78,614.72,1086.86,626.4416,1096.877,633.0492,1101.78,614.72" style="stroke:#181818;stroke-width:1.0;"/></g><!--reverse link Moto to Deportiva--><g id="link_Moto_Deportiva"><path codeLine="133" d="M1191.1342,629.7436 C1207.7242,654.8836 1216.87,668.76 1232.76,692.86 " fill="none" id="Moto-backto-Deportiva" style="stroke:#181818;stroke-width:1.0;"/><polygon fill="none" points="1181.22,614.72,1186.1263,633.0483,1196.142,626.4389,1181.22,614.72" style="stroke:#181818;stroke-width:1.0;"/></g><!--link Moto to TipoTransmision--><g id="link_Moto_TipoTransmision"><path codeLine="134" d="M1258.28,614.55 C1320.1,646.41 1384.7,679.87 1391.5,684 C1400.76,689.63 1405.3959,692.5352 1414.6459,698.8552 " fill="none" id="Moto-to-TipoTransmision" style="stroke:#181818;stroke-width:1.0;"/><polygon fill="#181818" points="1419.6,702.24,1414.4254,693.86,1415.4716,699.4193,1409.9123,700.4655,1419.6,702.24" style="stroke:#181818;stroke-width:1.0;"/></g><!--SRC=[dLNDZjCm4BxdAI9n0Q6YHTfJXLRAfW4YfJyqtHNNgJFjUaaynNOg473Wo867GJn2Nunn_kgiEB2SMd-UcU-R7qz42SQ4CIc1Hf82BIdy4an2uIFJCD8QFcVIs5UtU2T5NT9L43mFjxKHe7lewRDfsF_dovBDpvV6tUPMIxNdEp1ohyQUHv95y2q8O6ki1c53qKZhJLZLax023i0d648vJ8lHcGeioGFWz8jUmvOTGN12qr0go_07MLA5J7MFFNJGA5os1TNR4Xb0pg1W86b-6miwIBHjKGwe3HV85S9IIpTAKa3fjEgrHBCdxugp55tTnHswn5HThMhK5aolnSe3nLHnXQraCTDmCmROHC21CogWc4E95ZKDlbo_DjLDz-zCcMC1odKOZVEcLB6d93raFGcLF6B98x4ZRQVXmZi5NbOpRCh5CKw_bKkky__M4zN7Tf9wbSlTJXCKqt1BL28eleFIrXeokTMOrqtNkY3CSmibQU33Ns8pDwkHntPMGM29kcdk1RoykF1IEP15nIBZsxOs4wuhAfnJGIitdcSn_vHPHpydIwvhGfPI5HeA62O8pT25Dhd8CA7rXyfrblkYJ2LDswGnuFLA4ElNd6FNh6kufo6WOtcCwhveu6h6FQLkTZx92hoIDGLwLqln8R-JEwR_lnh5K74kem68GUzz9Xxwv1vDtvcIr5xQkbXZHUN76l_IHbTu_VZCL-r3TM8Klo2DmqkSX8MItcc7uWvYAEfUi49-0XanrGoia-AsoOAfAgyBJ2JTCzhn99xdzik_IKGkGxTWU9fdQRvQBjBhB0bkayKidIq7cmSBW8tVHFaoInSHUoLvaWLlJp-lryuboKu_uiqwZJtlRXCuZYIB5fja7GMRTPIxtyltbuEX_zxP-FhqFNTnviaiNGQhTJ9FR-OZJTxeilqyMjn4MH3TR9Rpq_TD6aVEUFo1cKokpX-AOS4xjElK6Eosxu2zUF7rwbpcC_xgwsJIhjG7c1kRXsRDU0QDTOiqYt44r4V_EEoS3dJA7kxa9aPpCzgQRXKsvlqsTe8walQ9UyZmJ5kif_4Nn1y0]--></g></svg>